#!OML:ASF X:\für Bonn\!DataBase\2005_08_11_Bastian_Final\c3d\Bastian.ASF
:FULLY-SPECIFIED
:DEGREES
63
root -1.61046 9.55925 2.05617 163.654 -1.42235 -170.689
lowerback 29.1561 -0.881204 6.61977
upperback 6.26052 -0.653282 2.31882
thorax -8.97899 -1.1677 -0.857942
lowerneck -7.01595 -5.93469 -3.27057
upperneck -7.52856 -8.15885 9.46609
head -0.623144 -4.39419 3.45728
rclavicle -7.70291e-015 -1.25234e-014
rhumerus 71.1717 13.5296 13.3633
rradius 38.8921
rwrist -66.9297
rhand -47.8456 -8.89911
rfingers 7.12502
rthumb -20.5201 -37.8347
lclavicle -7.70291e-015 -1.25234e-014
lhumerus 71.5358 -18.1082 -48.1955
lradius 31.8445
lwrist 39.7674
lhand -42.1166 21.5546
lfingers 7.12502
lthumb -15.0075 50.9908
rfemur -46.6006 -8.24629 36.5772
rtibia 131.954
rfoot -49.203 -22.9564
rtoes -8.61231
lfemur -46.4301 15.0285 -7.74136
ltibia 136.323
lfoot -51.5495 -7.94992
ltoes -22.1561
64
root -1.61979 9.42435 2.05187 163.612 -1.45088 -170.778
lowerback 29.3507 -0.831179 6.53218
upperback 6.29729 -0.619571 2.28053
thorax -9.03089 -1.15723 -0.858592
lowerneck -6.9607 -5.94546 -3.18945
upperneck -7.67681 -8.18261 9.49884
head -0.680906 -4.41834 3.45951
rclavicle 6.5102e-015 -1.66979e-014
rhumerus 71.0978 13.3893 13.6228
rradius 38.8458
rwrist -66.9199
rhand -47.752 -9.23264
rfingers 7.12502
rthumb -20.4301 -38.1779
lclavicle 6.5102e-015 -1.66979e-014
lhumerus 71.5536 -17.9625 -48.5163
lradius 32.0304
lwrist 40.199
lhand -42.2516 21.9432
lfingers 7.12502
lthumb -15.1376 51.3696
rfemur -47.288 -8.36363 36.6115
rtibia 133.313
rfoot -49.2285 -23.1825
rtoes -8.54596
lfemur -46.9405 16.0261 -7.53839
ltibia 137.565
lfoot -51.72 -8.65126
ltoes -21.2948
65
root -1.62799 9.29917 2.04775 163.569 -1.51336 -170.891
lowerback 29.5144 -0.774606 6.40746
upperback 6.357 -0.596216 2.24584
thorax -9.04206 -1.15102 -0.83157
lowerneck -6.91849 -5.9593 -3.14277
upperneck -7.84746 -8.20911 9.55385
head -0.741052 -4.44474 3.47586
rclavicle -2.27608e-014 -1.86858e-014
rhumerus 71.0228 13.2052 13.9323
rradius 38.8131
rwrist -67.0013
rhand -47.7077 -9.45368
rfingers 7.12502
rthumb -20.3875 -38.4035
lclavicle -2.27608e-014 -1.86858e-014
lhumerus 71.5907 -17.7854 -48.8876
lradius 32.1787
lwrist 40.6081
lhand -42.297 22.359
lfingers 7.12502
lthumb -15.1812 51.7821
rfemur -47.9301 -8.57009 36.5616
rtibia 134.568
rfoot -49.1652 -23.3198
rtoes -8.51054
lfemur -47.3974 16.9811 -7.38591
ltibia 138.706
lfoot -51.8943 -9.21534
ltoes -20.6695
66
root -1.6358 9.18092 2.04406 163.536 -1.56365 -171.002
lowerback 29.6815 -0.718583 6.29184
upperback 6.40417 -0.568105 2.19975
thorax -9.06905 -1.14201 -0.824151
lowerneck -6.89092 -5.97825 -3.08534
upperneck -7.97859 -8.24277 9.61077
head -0.78582 -4.47298 3.48897
rclavicle 9.93923e-016 2.90226e-014
rhumerus 70.9208 13.0327 14.2133
rradius 38.8215
rwrist -67.1485
rhand -47.709 -9.61684
rfingers 7.12502
rthumb -20.3887 -38.5665
lclavicle 9.93923e-016 2.90226e-014
lhumerus 71.6112 -17.6038 -49.0681
lradius 32.2577
lwrist 40.7789
lhand -42.2627 22.6396
lfingers 7.12502
lthumb -15.1482 52.0652
rfemur -48.5229 -8.77787 36.5034
rtibia 135.705
rfoot -48.9597 -23.5203
rtoes -8.58725
lfemur -47.828 17.9603 -7.21386
ltibia 139.781
lfoot -52.0457 -9.83626
ltoes -19.8836
67
root -1.64243 9.07419 2.04069 163.504 -1.6211 -171.118
lowerback 29.8362 -0.665195 6.16075
upperback 6.46247 -0.552498 2.15458
thorax -9.07787 -1.13896 -0.802837
lowerneck -6.90086 -5.98587 -3.03892
upperneck -8.10683 -8.26261 9.68073
head -0.823139 -4.49451 3.50753
rclavicle 1.83876e-015 -4.77083e-015
rhumerus 70.8606 12.846 14.5226
rradius 38.8385
rwrist -67.3674
rhand -47.789 -9.73388
rfingers 7.12502
rthumb -20.4656 -38.6753
lclavicle 1.83876e-015 -4.77083e-015
lhumerus 71.6177 -17.4324 -49.1464
lradius 32.2488
lwrist 40.7563
lhand -42.174 22.879
lfingers 7.12502
lthumb -15.0627 52.311
rfemur -49.0499 -9.00505 36.4294
rtibia 136.68
rfoot -48.6039 -23.907
rtoes -9.0337
lfemur -48.2059 18.9133 -7.02551
ltibia 140.739
lfoot -52.1732 -10.496
ltoes -19.1117
68
root -1.64891 8.9829 2.03761 163.466 -1.67391 -171.235
lowerback 29.9942 -0.606579 6.02482
upperback 6.52605 -0.533515 2.12157
thorax -9.08179 -1.13516 -0.76618
lowerneck -6.94572 -5.99842 -3.03281
upperneck -8.21858 -8.28672 9.74909
head -0.847248 -4.51579 3.53084
rclavicle -1.41137e-014 -3.02153e-014
rhumerus 70.7847 12.6687 14.8831
rradius 38.8975
rwrist -67.6267
rhand -47.9139 -9.7491
rfingers 7.12502
rthumb -20.5857 -38.6776
lclavicle -1.41137e-014 -3.02153e-014
lhumerus 71.5893 -17.2601 -49.0147
lradius 32.1769
lwrist 40.5479
lhand -42.0363 23.0444
lfingers 7.12502
lthumb -14.9301 52.4864
rfemur -49.4644 -9.21706 36.3212
rtibia 137.455
rfoot -48.2565 -24.2865
rtoes -9.57945
lfemur -48.5015 19.7697 -6.86608
ltibia 141.561
lfoot -52.2641 -11.1007
ltoes -18.2536
69
root -1.65424 8.91077 2.03491 163.442 -1.73319 -171.366
lowerback 30.1544 -0.541493 5.85221
upperback 6.58439 -0.51606 2.08434
thorax -9.09334 -1.13081 -0.712567
lowerneck -7.04508 -6.00567 -3.03066
upperneck -8.28526 -8.3052 9.83739
head -0.846688 -4.5322 3.55821
rclavicle -4.07509e-015 4.05521e-014
rhumerus 70.7181 12.5111 15.2284
rradius 38.9806
rwrist -67.9107
rhand -48.0878 -9.78179
rfingers 7.12502
rthumb -20.7528 -38.6921
lclavicle -4.07509e-015 4.05521e-014
lhumerus 71.54 -17.0944 -48.5197
lradius 31.9138
lwrist 39.9616
lhand -41.8597 23.0031
lfingers 7.12502
lthumb -14.76 52.4576
rfemur -49.769 -9.4022 36.178
rtibia 138.036
rfoot -48.0028 -24.6466
rtoes -10.1096
lfemur -48.7166 20.4955 -6.77289
ltibia 142.212
lfoot -52.3492 -11.5173
ltoes -17.7839
70
root -1.66035 8.85275 2.03197 163.423 -1.78283 -171.462
lowerback 30.2768 -0.481013 5.73371
upperback 6.66536 -0.497246 2.04846
thorax -9.05951 -1.1279 -0.690328
lowerneck -7.19917 -6.01459 -2.98633
upperneck -8.36037 -8.3328 9.90961
head -0.841504 -4.55511 3.57014
rclavicle 5.96354e-016 1.07344e-014
rhumerus 70.6358 12.3559 15.7044
rradius 39.1099
rwrist -68.3028
rhand -48.308 -9.80358
rfingers 7.12502
rthumb -20.9644 -38.6906
lclavicle 5.96354e-016 1.07344e-014
lhumerus 71.4735 -16.8928 -47.9539
lradius 31.6613
lwrist 39.3653
lhand -41.7135 22.9021
lfingers 7.12502
lthumb -14.6191 52.3668
rfemur -49.9948 -9.57197 36.0595
rtibia 138.489
rfoot -47.855 -24.9863
rtoes -10.4923
lfemur -48.8479 21.1667 -6.6826
ltibia 142.74
lfoot -52.4851 -11.742
ltoes -17.6997
71
root -1.66523 8.80547 2.03079 163.398 -1.8503 -171.589
lowerback 30.4267 -0.426001 5.564
upperback 6.72654 -0.495053 2.00155
thorax -9.06344 -1.13084 -0.644004
lowerneck -7.30458 -6.01384 -2.95646
upperneck -8.42226 -8.34383 9.99332
head -0.84027 -4.56875 3.59079
rclavicle 1.24737e-014 -7.95139e-015
rhumerus 70.6002 12.2468 16.2636
rradius 39.2697
rwrist -68.7216
rhand -48.539 -9.91882
rfingers 7.12502
rthumb -21.1863 -38.7811
lclavicle 1.24737e-014 -7.95139e-015
lhumerus 71.4544 -16.7869 -47.9091
lradius 31.6963
lwrist 39.3175
lhand -41.7734 22.8499
lfingers 7.12502
lthumb -14.6768 52.3105
rfemur -50.1756 -9.76447 35.8779
rtibia 138.865
rfoot -47.7803 -25.1608
rtoes -10.6495
lfemur -48.9555 21.6761 -6.67321
ltibia 143.155
lfoot -52.5736 -11.9058
ltoes -17.6771
72
root -1.67032 8.76285 2.02942 163.374 -1.92311 -171.699
lowerback 30.5371 -0.371959 5.39713
upperback 6.79679 -0.496345 1.97602
thorax -9.03768 -1.13548 -0.574828
lowerneck -7.40085 -6.0078 -2.945
upperneck -8.50709 -8.34651 10.0711
head -0.84813 -4.57886 3.61427
rclavicle -9.44227e-015 9.14409e-015
rhumerus 70.5804 12.157 16.8462
rradius 39.4499
rwrist -69.1637
rhand -48.7594 -10.0421
rfingers 7.12502
rthumb -21.398 -38.8805
lclavicle -9.44227e-015 9.14409e-015
lhumerus 71.4977 -16.74 -48.3718
lradius 31.9656
lwrist 39.8527
lhand -41.9892 22.8569
lfingers 7.12502
lthumb -14.8848 52.3022
rfemur -50.3221 -10.0005 35.7102
rtibia 139.226
rfoot -47.8803 -25.2204
rtoes -10.5893
lfemur -49.0119 22.1372 -6.65359
ltibia 143.506
lfoot -52.6898 -12.0211
ltoes -17.8593
73
root -1.67538 8.72735 2.0283 163.373 -1.97249 -171.819
lowerback 30.5867 -0.311085 5.20703
upperback 6.88511 -0.502714 1.95774
thorax -8.96219 -1.14197 -0.483943
lowerneck -7.57431 -5.99531 -2.96033
upperneck -8.53918 -8.34073 10.1413
head -0.825462 -4.58045 3.63543
rclavicle -3.97569e-016 1.90833e-014
rhumerus 70.5889 12.0689 17.326
rradius 39.6113
rwrist -69.482
rhand -48.9567 -10.2339
rfingers 7.12502
rthumb -21.5875 -39.0507
lclavicle -3.97569e-016 1.90833e-014
lhumerus 71.5497 -16.7588 -48.9497
lradius 32.2549
lwrist 40.5118
lhand -42.2922 22.8667
lfingers 7.12502
lthumb -15.1766 52.2901
rfemur -50.468 -10.1915 35.5189
rtibia 139.531
rfoot -48.0696 -25.1619
rtoes -10.3193
lfemur -49.0772 22.5523 -6.66919
ltibia 143.783
lfoot -52.7675 -12.156
ltoes -17.8321
